<?xml version="1.0" encoding="UTF-8" standalone="no"?><svg xmlns="http://www.w3.org/2000/svg" xmlns:xlink="http://www.w3.org/1999/xlink" contentScriptType="application/ecmascript" contentStyleType="text/css" height="571px" preserveAspectRatio="none" style="width:851px;height:571px;background:#FFFFFF;" version="1.1" viewBox="0 0 851 571" width="851px" zoomAndPan="magnify"><defs><filter height="300%" id="fw97gh2eaz7x" width="300%" x="-1" y="-1"><feGaussianBlur result="blurOut" stdDeviation="2.0"/><feColorMatrix in="blurOut" result="blurOut2" type="matrix" values="0 0 0 0 0 0 0 0 0 0 0 0 0 0 0 0 0 0 .4 0"/><feOffset dx="4.0" dy="4.0" in="blurOut2" result="blurOut3"/><feBlend in="SourceGraphic" in2="blurOut3" mode="normal"/></filter></defs><g><line style="stroke:#A80036;stroke-width:1.0;stroke-dasharray:5.0,5.0;" x1="77" x2="77" y1="40.7999" y2="527.2001"/><line style="stroke:#A80036;stroke-width:1.0;stroke-dasharray:5.0,5.0;" x1="249.5" x2="249.5" y1="40.7999" y2="527.2001"/><line style="stroke:#A80036;stroke-width:1.0;stroke-dasharray:5.0,5.0;" x1="413.5" x2="413.5" y1="40.7999" y2="527.2001"/><line style="stroke:#A80036;stroke-width:1.0;stroke-dasharray:5.0,5.0;" x1="589.5" x2="589.5" y1="40.7999" y2="527.2001"/><line style="stroke:#A80036;stroke-width:1.0;stroke-dasharray:5.0,5.0;" x1="755.5" x2="755.5" y1="40.7999" y2="527.2001"/><rect fill="#FEFECE" filter="url(#fw97gh2eaz7x)" height="30.7999" style="stroke:#A80036;stroke-width:1.5;" width="141" x="5" y="5"/><text fill="#000000" font-family="sans-serif" font-size="14" lengthAdjust="spacing" textLength="127" x="12" y="25.9999">Analista de negócios</text><rect fill="#FEFECE" filter="url(#fw97gh2eaz7x)" height="30.7999" style="stroke:#A80036;stroke-width:1.5;" width="141" x="5" y="526.2001"/><text fill="#000000" font-family="sans-serif" font-size="14" lengthAdjust="spacing" textLength="127" x="12" y="547.2001">Analista de negócios</text><rect fill="#FEFECE" filter="url(#fw97gh2eaz7x)" height="30.7999" style="stroke:#A80036;stroke-width:1.5;" width="146" x="174.5" y="5"/><text fill="#000000" font-family="sans-serif" font-size="14" lengthAdjust="spacing" textLength="132" x="181.5" y="25.9999">Analista de requisitos</text><rect fill="#FEFECE" filter="url(#fw97gh2eaz7x)" height="30.7999" style="stroke:#A80036;stroke-width:1.5;" width="146" x="174.5" y="526.2001"/><text fill="#000000" font-family="sans-serif" font-size="14" lengthAdjust="spacing" textLength="132" x="181.5" y="547.2001">Analista de requisitos</text><rect fill="#FEFECE" filter="url(#fw97gh2eaz7x)" height="30.7999" style="stroke:#A80036;stroke-width:1.5;" width="144" x="339.5" y="5"/><text fill="#000000" font-family="sans-serif" font-size="14" lengthAdjust="spacing" textLength="130" x="346.5" y="25.9999">Arquiteto de software</text><rect fill="#FEFECE" filter="url(#fw97gh2eaz7x)" height="30.7999" style="stroke:#A80036;stroke-width:1.5;" width="144" x="339.5" y="526.2001"/><text fill="#000000" font-family="sans-serif" font-size="14" lengthAdjust="spacing" textLength="130" x="346.5" y="547.2001">Arquiteto de software</text><rect fill="#FEFECE" filter="url(#fw97gh2eaz7x)" height="30.7999" style="stroke:#A80036;stroke-width:1.5;" width="181" x="497.5" y="5"/><text fill="#000000" font-family="sans-serif" font-size="14" lengthAdjust="spacing" textLength="167" x="504.5" y="25.9999">Equipe de desenvolvimento</text><rect fill="#FEFECE" filter="url(#fw97gh2eaz7x)" height="30.7999" style="stroke:#A80036;stroke-width:1.5;" width="181" x="497.5" y="526.2001"/><text fill="#000000" font-family="sans-serif" font-size="14" lengthAdjust="spacing" textLength="167" x="504.5" y="547.2001">Equipe de desenvolvimento</text><rect fill="#FEFECE" filter="url(#fw97gh2eaz7x)" height="30.7999" style="stroke:#A80036;stroke-width:1.5;" width="123" x="692.5" y="5"/><text fill="#000000" font-family="sans-serif" font-size="14" lengthAdjust="spacing" textLength="109" x="699.5" y="25.9999">Analista de testes</text><rect fill="#FEFECE" filter="url(#fw97gh2eaz7x)" height="30.7999" style="stroke:#A80036;stroke-width:1.5;" width="123" x="692.5" y="526.2001"/><text fill="#000000" font-family="sans-serif" font-size="14" lengthAdjust="spacing" textLength="109" x="699.5" y="547.2001">Analista de testes</text><polygon fill="#A80036" points="237.5,68.3999,247.5,72.3999,237.5,76.3999,241.5,72.3999" style="stroke:#A80036;stroke-width:1.0;"/><line style="stroke:#A80036;stroke-width:1.0;" x1="77.5" x2="243.5" y1="72.3999" y2="72.3999"/><text fill="#000000" font-family="sans-serif" font-size="13" lengthAdjust="spacing" textLength="118" x="84.5" y="67.7999">Demanda de produto</text><polygon fill="#A80036" points="88.5,98,78.5,102,88.5,106,84.5,102" style="stroke:#A80036;stroke-width:1.0;"/><line style="stroke:#A80036;stroke-width:1.0;" x1="82.5" x2="248.5" y1="102" y2="102"/><text fill="#000000" font-family="sans-serif" font-size="13" lengthAdjust="spacing" textLength="130" x="94.5" y="97.4">Elicitação de requisitos</text><polygon fill="#A80036" points="237.5,127.6,247.5,131.6,237.5,135.6,241.5,131.6" style="stroke:#A80036;stroke-width:1.0;"/><line style="stroke:#A80036;stroke-width:1.0;" x1="77.5" x2="243.5" y1="131.6" y2="131.6"/><text fill="#000000" font-family="sans-serif" font-size="13" lengthAdjust="spacing" textLength="135" x="84.5" y="127">Aprovação de requisitos</text><polygon fill="#A80036" points="401.5,157.2,411.5,161.2,401.5,165.2,405.5,161.2" style="stroke:#A80036;stroke-width:1.0;"/><line style="stroke:#A80036;stroke-width:1.0;" x1="249.5" x2="407.5" y1="161.2" y2="161.2"/><text fill="#000000" font-family="sans-serif" font-size="13" lengthAdjust="spacing" textLength="140" x="256.5" y="156.6">Documento de requisitos</text><polygon fill="#A80036" points="578,186.8,588,190.8,578,194.8,582,190.8" style="stroke:#A80036;stroke-width:1.0;"/><line style="stroke:#A80036;stroke-width:1.0;" x1="413.5" x2="584" y1="190.8" y2="190.8"/><text fill="#000000" font-family="sans-serif" font-size="13" lengthAdjust="spacing" textLength="147" x="420.5" y="186.2">Documento de arquitetura</text><line style="stroke:#A80036;stroke-width:1.0;" x1="590" x2="632" y1="220.4" y2="220.4"/><line style="stroke:#A80036;stroke-width:1.0;" x1="632" x2="632" y1="220.4" y2="233.4"/><line style="stroke:#A80036;stroke-width:1.0;" x1="591" x2="632" y1="233.4" y2="233.4"/><polygon fill="#A80036" points="601,229.4,591,233.4,601,237.4,597,233.4" style="stroke:#A80036;stroke-width:1.0;"/><text fill="#000000" font-family="sans-serif" font-size="13" lengthAdjust="spacing" textLength="121" x="597" y="215.8">Desenvolve o produto</text><polygon fill="#A80036" points="744,259,754,263,744,267,748,263" style="stroke:#A80036;stroke-width:1.0;"/><line style="stroke:#A80036;stroke-width:1.0;" x1="590" x2="750" y1="263" y2="263"/><text fill="#000000" font-family="sans-serif" font-size="13" lengthAdjust="spacing" textLength="103" x="597" y="258.4">Demanda de teste</text><line style="stroke:#A80036;stroke-width:1.0;" x1="756" x2="798" y1="292.6" y2="292.6"/><line style="stroke:#A80036;stroke-width:1.0;" x1="798" x2="798" y1="292.6" y2="305.6"/><line style="stroke:#A80036;stroke-width:1.0;" x1="757" x2="798" y1="305.6" y2="305.6"/><polygon fill="#A80036" points="767,301.6,757,305.6,767,309.6,763,305.6" style="stroke:#A80036;stroke-width:1.0;"/><text fill="#000000" font-family="sans-serif" font-size="13" lengthAdjust="spacing" textLength="81" x="763" y="288">Plano de teste</text><line style="stroke:#A80036;stroke-width:1.0;" x1="756" x2="798" y1="335.2001" y2="335.2001"/><line style="stroke:#A80036;stroke-width:1.0;" x1="798" x2="798" y1="335.2001" y2="348.2001"/><line style="stroke:#A80036;stroke-width:1.0;" x1="757" x2="798" y1="348.2001" y2="348.2001"/><polygon fill="#A80036" points="767,344.2001,757,348.2001,767,352.2001,763,348.2001" style="stroke:#A80036;stroke-width:1.0;"/><text fill="#000000" font-family="sans-serif" font-size="13" lengthAdjust="spacing" textLength="78" x="763" y="330.6">Suíte de teste</text><polygon fill="#A80036" points="601,373.8001,591,377.8001,601,381.8001,597,377.8001" style="stroke:#A80036;stroke-width:1.0;"/><line style="stroke:#A80036;stroke-width:1.0;" x1="595" x2="755" y1="377.8001" y2="377.8001"/><text fill="#000000" font-family="sans-serif" font-size="13" lengthAdjust="spacing" textLength="99" x="607" y="373.2001">Relatório de teste</text><line style="stroke:#A80036;stroke-width:1.0;" x1="590" x2="632" y1="407.4001" y2="407.4001"/><line style="stroke:#A80036;stroke-width:1.0;" x1="632" x2="632" y1="407.4001" y2="420.4001"/><line style="stroke:#A80036;stroke-width:1.0;" x1="591" x2="632" y1="420.4001" y2="420.4001"/><polygon fill="#A80036" points="601,416.4001,591,420.4001,601,424.4001,597,420.4001" style="stroke:#A80036;stroke-width:1.0;"/><text fill="#000000" font-family="sans-serif" font-size="13" lengthAdjust="spacing" textLength="99" x="597" y="402.8001">Correção de bugs</text><polygon fill="#A80036" points="260.5,446.0001,250.5,450.0001,260.5,454.0001,256.5,450.0001" style="stroke:#A80036;stroke-width:1.0;"/><line style="stroke:#A80036;stroke-width:1.0;" x1="254.5" x2="589" y1="450.0001" y2="450.0001"/><text fill="#000000" font-family="sans-serif" font-size="13" lengthAdjust="spacing" textLength="153" x="266.5" y="445.4001">Produto para homologação</text><polygon fill="#A80036" points="88.5,475.6001,78.5,479.6001,88.5,483.6001,84.5,479.6001" style="stroke:#A80036;stroke-width:1.0;"/><line style="stroke:#A80036;stroke-width:1.0;" x1="82.5" x2="248.5" y1="479.6001" y2="479.6001"/><text fill="#000000" font-family="sans-serif" font-size="13" lengthAdjust="spacing" textLength="138" x="94.5" y="475.0001">Roteiro de homologação</text><polygon fill="#A80036" points="237.5,505.2001,247.5,509.2001,237.5,513.2001,241.5,509.2001" style="stroke:#A80036;stroke-width:1.0;"/><line style="stroke:#A80036;stroke-width:1.0;" x1="77.5" x2="243.5" y1="509.2001" y2="509.2001"/><text fill="#000000" font-family="sans-serif" font-size="13" lengthAdjust="spacing" textLength="148" x="84.5" y="504.6001">Relatório de homologação</text><!--MD5=[5dd3a59ca97a4e78ff7d33a39f429a7e]
@startuml
"Analista de negócios" -> "Analista de requisitos": Demanda de produto
"Analista de requisitos" -> "Analista de negócios": Elicitação de requisitos
"Analista de negócios" -> "Analista de requisitos": Aprovação de requisitos
"Analista de requisitos" -> "Arquiteto de software": Documento de requisitos
"Arquiteto de software" -> "Equipe de desenvolvimento": Documento de arquitetura
"Equipe de desenvolvimento" -> "Equipe de desenvolvimento": Desenvolve o produto
"Equipe de desenvolvimento" -> "Analista de testes": Demanda de teste
"Analista de testes" -> "Analista de testes": Plano de teste
"Analista de testes" -> "Analista de testes": Suíte de teste
"Analista de testes" -> "Equipe de desenvolvimento": Relatório de teste
"Equipe de desenvolvimento" -> "Equipe de desenvolvimento": Correção de bugs
"Equipe de desenvolvimento" -> "Analista de requisitos": Produto para homologação
"Analista de requisitos" -> "Analista de negócios": Roteiro de homologação
"Analista de negócios" -> "Analista de requisitos": Relatório de homologação
@enduml

PlantUML version 1.2021.10(Mon Aug 30 13:43:48 GMT 2021)
(GPL source distribution)
Java Runtime: OpenJDK Runtime Environment
JVM: OpenJDK 64-Bit Server VM
Default Encoding: UTF-8
Language: en
Country: US
--></g></svg>