<?xml version="1.0" encoding="UTF-8" standalone="no"?><svg xmlns="http://www.w3.org/2000/svg" xmlns:xlink="http://www.w3.org/1999/xlink" contentScriptType="application/ecmascript" contentStyleType="text/css" height="571px" preserveAspectRatio="none" style="width:775px;height:571px;background:#FFFFFF;" version="1.1" viewBox="0 0 775 571" width="775px" zoomAndPan="magnify"><defs><filter height="300%" id="f19l0js4gwrjmt" width="300%" x="-1" y="-1"><feGaussianBlur result="blurOut" stdDeviation="2.0"/><feColorMatrix in="blurOut" result="blurOut2" type="matrix" values="0 0 0 0 0 0 0 0 0 0 0 0 0 0 0 0 0 0 .4 0"/><feOffset dx="4.0" dy="4.0" in="blurOut2" result="blurOut3"/><feBlend in="SourceGraphic" in2="blurOut3" mode="normal"/></filter></defs><g><line style="stroke:#A80036;stroke-width:1.0;stroke-dasharray:5.0,5.0;" x1="38" x2="38" y1="40.7999" y2="527.2001"/><line style="stroke:#A80036;stroke-width:1.0;stroke-dasharray:5.0,5.0;" x1="210" x2="210" y1="40.7999" y2="527.2001"/><line style="stroke:#A80036;stroke-width:1.0;stroke-dasharray:5.0,5.0;" x1="373.5" x2="373.5" y1="40.7999" y2="527.2001"/><line style="stroke:#A80036;stroke-width:1.0;stroke-dasharray:5.0,5.0;" x1="544.5" x2="544.5" y1="40.7999" y2="527.2001"/><line style="stroke:#A80036;stroke-width:1.0;stroke-dasharray:5.0,5.0;" x1="679.5" x2="679.5" y1="40.7999" y2="527.2001"/><rect fill="#FEFECE" filter="url(#f19l0js4gwrjmt)" height="30.7999" style="stroke:#A80036;stroke-width:1.5;" width="62" x="5" y="5"/><text fill="#000000" font-family="sans-serif" font-size="14" lengthAdjust="spacing" textLength="48" x="12" y="25.9999">Produto</text><rect fill="#FEFECE" filter="url(#f19l0js4gwrjmt)" height="30.7999" style="stroke:#A80036;stroke-width:1.5;" width="62" x="5" y="526.2001"/><text fill="#000000" font-family="sans-serif" font-size="14" lengthAdjust="spacing" textLength="48" x="12" y="547.2001">Produto</text><rect fill="#FEFECE" filter="url(#f19l0js4gwrjmt)" height="30.7999" style="stroke:#A80036;stroke-width:1.5;" width="78" x="169" y="5"/><text fill="#000000" font-family="sans-serif" font-size="14" lengthAdjust="spacing" textLength="64" x="176" y="25.9999">Requisitos</text><rect fill="#FEFECE" filter="url(#f19l0js4gwrjmt)" height="30.7999" style="stroke:#A80036;stroke-width:1.5;" width="78" x="169" y="526.2001"/><text fill="#000000" font-family="sans-serif" font-size="14" lengthAdjust="spacing" textLength="64" x="176" y="547.2001">Requisitos</text><rect fill="#FEFECE" filter="url(#f19l0js4gwrjmt)" height="30.7999" style="stroke:#A80036;stroke-width:1.5;" width="83" x="330.5" y="5"/><text fill="#000000" font-family="sans-serif" font-size="14" lengthAdjust="spacing" textLength="69" x="337.5" y="25.9999">Arquitetura</text><rect fill="#FEFECE" filter="url(#f19l0js4gwrjmt)" height="30.7999" style="stroke:#A80036;stroke-width:1.5;" width="83" x="330.5" y="526.2001"/><text fill="#000000" font-family="sans-serif" font-size="14" lengthAdjust="spacing" textLength="69" x="337.5" y="547.2001">Arquitetura</text><rect fill="#FEFECE" filter="url(#f19l0js4gwrjmt)" height="30.7999" style="stroke:#A80036;stroke-width:1.5;" width="181" x="452.5" y="5"/><text fill="#000000" font-family="sans-serif" font-size="14" lengthAdjust="spacing" textLength="167" x="459.5" y="25.9999">Equipe de desenvolvimento</text><rect fill="#FEFECE" filter="url(#f19l0js4gwrjmt)" height="30.7999" style="stroke:#A80036;stroke-width:1.5;" width="181" x="452.5" y="526.2001"/><text fill="#000000" font-family="sans-serif" font-size="14" lengthAdjust="spacing" textLength="167" x="459.5" y="547.2001">Equipe de desenvolvimento</text><rect fill="#FEFECE" filter="url(#f19l0js4gwrjmt)" height="30.7999" style="stroke:#A80036;stroke-width:1.5;" width="55" x="650.5" y="5"/><text fill="#000000" font-family="sans-serif" font-size="14" lengthAdjust="spacing" textLength="41" x="657.5" y="25.9999">Testes</text><rect fill="#FEFECE" filter="url(#f19l0js4gwrjmt)" height="30.7999" style="stroke:#A80036;stroke-width:1.5;" width="55" x="650.5" y="526.2001"/><text fill="#000000" font-family="sans-serif" font-size="14" lengthAdjust="spacing" textLength="41" x="657.5" y="547.2001">Testes</text><polygon fill="#A80036" points="198,68.3999,208,72.3999,198,76.3999,202,72.3999" style="stroke:#A80036;stroke-width:1.0;"/><line style="stroke:#A80036;stroke-width:1.0;" x1="38" x2="204" y1="72.3999" y2="72.3999"/><text fill="#000000" font-family="sans-serif" font-size="13" lengthAdjust="spacing" textLength="118" x="45" y="67.7999">Demanda de produto</text><polygon fill="#A80036" points="49,98,39,102,49,106,45,102" style="stroke:#A80036;stroke-width:1.0;"/><line style="stroke:#A80036;stroke-width:1.0;" x1="43" x2="209" y1="102" y2="102"/><text fill="#000000" font-family="sans-serif" font-size="13" lengthAdjust="spacing" textLength="130" x="55" y="97.4">Elicitação de requisitos</text><polygon fill="#A80036" points="198,127.6,208,131.6,198,135.6,202,131.6" style="stroke:#A80036;stroke-width:1.0;"/><line style="stroke:#A80036;stroke-width:1.0;" x1="38" x2="204" y1="131.6" y2="131.6"/><text fill="#000000" font-family="sans-serif" font-size="13" lengthAdjust="spacing" textLength="135" x="45" y="127">Aprovação de requisitos</text><polygon fill="#A80036" points="362,157.2,372,161.2,362,165.2,366,161.2" style="stroke:#A80036;stroke-width:1.0;"/><line style="stroke:#A80036;stroke-width:1.0;" x1="210" x2="368" y1="161.2" y2="161.2"/><text fill="#000000" font-family="sans-serif" font-size="13" lengthAdjust="spacing" textLength="140" x="217" y="156.6">Documento de requisitos</text><polygon fill="#A80036" points="533,186.8,543,190.8,533,194.8,537,190.8" style="stroke:#A80036;stroke-width:1.0;"/><line style="stroke:#A80036;stroke-width:1.0;" x1="374" x2="539" y1="190.8" y2="190.8"/><text fill="#000000" font-family="sans-serif" font-size="13" lengthAdjust="spacing" textLength="147" x="381" y="186.2">Documento de arquitetura</text><line style="stroke:#A80036;stroke-width:1.0;" x1="545" x2="587" y1="220.4" y2="220.4"/><line style="stroke:#A80036;stroke-width:1.0;" x1="587" x2="587" y1="220.4" y2="233.4"/><line style="stroke:#A80036;stroke-width:1.0;" x1="546" x2="587" y1="233.4" y2="233.4"/><polygon fill="#A80036" points="556,229.4,546,233.4,556,237.4,552,233.4" style="stroke:#A80036;stroke-width:1.0;"/><text fill="#000000" font-family="sans-serif" font-size="13" lengthAdjust="spacing" textLength="121" x="552" y="215.8">Desenvolve o produto</text><polygon fill="#A80036" points="668,259,678,263,668,267,672,263" style="stroke:#A80036;stroke-width:1.0;"/><line style="stroke:#A80036;stroke-width:1.0;" x1="545" x2="674" y1="263" y2="263"/><text fill="#000000" font-family="sans-serif" font-size="13" lengthAdjust="spacing" textLength="103" x="552" y="258.4">Demanda de teste</text><line style="stroke:#A80036;stroke-width:1.0;" x1="680" x2="722" y1="292.6" y2="292.6"/><line style="stroke:#A80036;stroke-width:1.0;" x1="722" x2="722" y1="292.6" y2="305.6"/><line style="stroke:#A80036;stroke-width:1.0;" x1="681" x2="722" y1="305.6" y2="305.6"/><polygon fill="#A80036" points="691,301.6,681,305.6,691,309.6,687,305.6" style="stroke:#A80036;stroke-width:1.0;"/><text fill="#000000" font-family="sans-serif" font-size="13" lengthAdjust="spacing" textLength="81" x="687" y="288">Plano de teste</text><line style="stroke:#A80036;stroke-width:1.0;" x1="680" x2="722" y1="335.2001" y2="335.2001"/><line style="stroke:#A80036;stroke-width:1.0;" x1="722" x2="722" y1="335.2001" y2="348.2001"/><line style="stroke:#A80036;stroke-width:1.0;" x1="681" x2="722" y1="348.2001" y2="348.2001"/><polygon fill="#A80036" points="691,344.2001,681,348.2001,691,352.2001,687,348.2001" style="stroke:#A80036;stroke-width:1.0;"/><text fill="#000000" font-family="sans-serif" font-size="13" lengthAdjust="spacing" textLength="78" x="687" y="330.6">Suíte de teste</text><polygon fill="#A80036" points="556,373.8001,546,377.8001,556,381.8001,552,377.8001" style="stroke:#A80036;stroke-width:1.0;"/><line style="stroke:#A80036;stroke-width:1.0;" x1="550" x2="679" y1="377.8001" y2="377.8001"/><text fill="#000000" font-family="sans-serif" font-size="13" lengthAdjust="spacing" textLength="99" x="562" y="373.2001">Relatório de teste</text><line style="stroke:#A80036;stroke-width:1.0;" x1="545" x2="587" y1="407.4001" y2="407.4001"/><line style="stroke:#A80036;stroke-width:1.0;" x1="587" x2="587" y1="407.4001" y2="420.4001"/><line style="stroke:#A80036;stroke-width:1.0;" x1="546" x2="587" y1="420.4001" y2="420.4001"/><polygon fill="#A80036" points="556,416.4001,546,420.4001,556,424.4001,552,420.4001" style="stroke:#A80036;stroke-width:1.0;"/><text fill="#000000" font-family="sans-serif" font-size="13" lengthAdjust="spacing" textLength="99" x="552" y="402.8001">Correção de bugs</text><polygon fill="#A80036" points="221,446.0001,211,450.0001,221,454.0001,217,450.0001" style="stroke:#A80036;stroke-width:1.0;"/><line style="stroke:#A80036;stroke-width:1.0;" x1="215" x2="544" y1="450.0001" y2="450.0001"/><text fill="#000000" font-family="sans-serif" font-size="13" lengthAdjust="spacing" textLength="153" x="227" y="445.4001">Produto para homologação</text><polygon fill="#A80036" points="49,475.6001,39,479.6001,49,483.6001,45,479.6001" style="stroke:#A80036;stroke-width:1.0;"/><line style="stroke:#A80036;stroke-width:1.0;" x1="43" x2="209" y1="479.6001" y2="479.6001"/><text fill="#000000" font-family="sans-serif" font-size="13" lengthAdjust="spacing" textLength="138" x="55" y="475.0001">Roteiro de homologação</text><polygon fill="#A80036" points="198,505.2001,208,509.2001,198,513.2001,202,509.2001" style="stroke:#A80036;stroke-width:1.0;"/><line style="stroke:#A80036;stroke-width:1.0;" x1="38" x2="204" y1="509.2001" y2="509.2001"/><text fill="#000000" font-family="sans-serif" font-size="13" lengthAdjust="spacing" textLength="148" x="45" y="504.6001">Relatório de homologação</text><!--MD5=[c9d87473ab821283fa00b7d5325986a1]
@startuml
"Produto" -> "Requisitos": Demanda de produto
"Requisitos" -> "Produto": Elicitação de requisitos
"Produto" -> "Requisitos": Aprovação de requisitos
"Requisitos" -> "Arquitetura": Documento de requisitos
"Arquitetura" -> "Equipe de desenvolvimento": Documento de arquitetura
"Equipe de desenvolvimento" -> "Equipe de desenvolvimento": Desenvolve o produto
"Equipe de desenvolvimento" -> "Testes": Demanda de teste
"Testes" -> "Testes": Plano de teste
"Testes" -> "Testes": Suíte de teste
"Testes" -> "Equipe de desenvolvimento": Relatório de teste
"Equipe de desenvolvimento" -> "Equipe de desenvolvimento": Correção de bugs
"Equipe de desenvolvimento" -> "Requisitos": Produto para homologação
"Requisitos" -> "Produto": Roteiro de homologação
"Produto" -> "Requisitos": Relatório de homologação
@enduml

PlantUML version 1.2021.10(Mon Aug 30 13:43:48 GMT 2021)
(GPL source distribution)
Java Runtime: OpenJDK Runtime Environment
JVM: OpenJDK 64-Bit Server VM
Default Encoding: UTF-8
Language: en
Country: US
--></g></svg>